<svg width="81" height="60" xmlns="http://www.w3.org/2000/svg">

 <g>
  <title>background</title>
  <rect fill="none" id="canvas_background" height="62" width="83" y="-1" x="-1"/>
 </g>
 <g>
  <title>Layer 1</title>
  <path id="svg_1" d="m76.85007,7.000246l-7.9,0l0,-4c0,-1.5 -1.2,-2.7 -2.7,-2.7l-10.1,0c-1.5,0 -2.7,1.2 -2.7,2.7l0,4l-25.4,0l0,-4c0,-1.5 -1.2,-2.7 -2.7,-2.7l-10.1,0c-1.5,0 -2.7,1.2 -2.7,2.7l0,4l-7.9,0c-2.5,0 -4.5,2 -4.5,4.5l0,8c0,1.8 1.1,3.4 2.7,4.1l0,31.9c0,2.3 1.9,4.3 4.3,4.3l67.2,0c1.3,0 2.4,-0.6 3.1,-1.4l0.6,0l0,-0.8c0.3,-0.6 0.5,-1.3 0.5,-2l0,-32c1.6,-0.7 2.7,-2.3 2.7,-4.1l0,-8c0.1,-2.5 -1.9,-4.5 -4.4,-4.5zm-20.2,-3.5l9,0l0,3.5l-9,0l0,-3.5zm-40.8,0l9,0l0,3.5l-9,0l0,-3.5zm62.2,16c0,0.6 -0.5,1.2 -1.2,1.2l-1.6,0.1l0,20.9l-69.1,0l0,-21l-1.6,-0.1c-0.6,0 -1.2,-0.6 -1.2,-1.2l0,-8c0,-0.7 0.5,-1.2 1.2,-1.2l7.9,0l15.5,0l25.3,0l15.5,0l7.9,0c0.7,0 1.2,0.5 1.2,1.2l0,8.1l0.2,0zm-17.4,8.4l0,2.2l0,0c0,0.6 -0.4,1.2 -1,1.2l-12,0c-0.5,0 -1,-0.5 -1,-1.2l0,-2.2c0,-0.6 0.4,-1.2 1,-1.2l12,0c0.5,0 1,0.6 1,1.2zm-26.4,0l0,2.2l0,0c0,0.6 -0.4,1.2 -1,1.2l-3.7,0l0,3.7c0,0.5 -0.5,1 -1.2,1l-2.2,0l0,0c-0.6,0 -1.2,-0.4 -1.2,-1l0,-3.7l-3.7,0c-0.5,0 -1,-0.5 -1,-1.2l0,-2.2c0,-0.6 0.4,-1.2 1,-1.2l3.7,0l0,-3.7c0,-0.5 0.5,-1 1.2,-1l2.2,0c0.6,0 1.2,0.4 1.2,1l0,3.7l3.7,0c0.6,0 1,0.6 1,1.2z" fill="#edebeb"/>
 </g>
</svg>