<svg width="85" height="59" xmlns="http://www.w3.org/2000/svg">
 <metadata id="metadata7">image/svg+xml</metadata>
 <defs>
  <clipPath id="clipPath1980" clipPathUnits="userSpaceOnUse">
   <path id="path1982" d="m194.235462,201.731593l22.677,0l0,18.359l-22.677,0l0,-18.359z"/>
  </clipPath>
 </defs>
 <g>
  <title>background</title>
  <rect fill="none" id="canvas_background" height="61" width="87" y="-1" x="-1"/>
 </g>
 <g>
  <title>Layer 1</title>
  <g fill="#edebeb" id="g1976" transform="matrix(5.3551721,0,0,-5.3551721,-1057.9348,1162.7097) ">
   <g clip-path="url(#clipPath1980)" id="g1978">
    <g id="g1984">
     <path fill="#edebeb" fill-rule="nonzero" id="path1986" d="m213.18056,214.2917c-0.045,0.236 -0.251,0.408 -0.492,0.408l-1.12,0.005c-0.219,0 -0.412,-0.141 -0.478,-0.349c0,0 -0.372,-1.16 -0.525,-1.635l-0.474,0c-0.135,0.489 -0.445,1.615 -0.445,1.615c-0.061,0.218 -0.259,0.369 -0.485,0.369l-0.722,0l0,0.552c0,0.278 -0.224,0.502 -0.502,0.502l-1.837,0l0,0.559l1.837,0l0,0.803l-6.757,0l0,-0.803l2.049,0l0,-0.559l-2.049,0c-0.277,0 -0.502,-0.224 -0.502,-0.502l0,-0.552l-1.186,0c-0.278,0 -0.503,-0.225 -0.503,-0.503l0,-2.326l-0.43,0l0,2.326l-1.005,0l0,-5.657l1.005,0l0,2.326l0.43,0l0,-2.326c0,-0.278 0.225,-0.502 0.503,-0.502l1.479,0c0.243,-0.326 1.327,-1.783 1.327,-1.783c0.095,-0.127 0.244,-0.202 0.403,-0.202l6.46,0c0.226,0 0.423,0.15 0.484,0.366c0,0 0.317,1.128 0.454,1.614l0.483,0c0.149,-0.477 0.506,-1.628 0.506,-1.628c0.065,-0.21 0.26,-0.354 0.481,-0.354l1.14,0.002c0.242,0 0.451,0.174 0.495,0.413c0.203,1.135 0.311,2.465 0.311,3.848c0,1.448 -0.116,2.822 -0.335,3.973m-0.914,-7.229c-0.156,-0.001 -0.184,-0.001 -0.328,-0.001c-0.149,0.478 -0.505,1.627 -0.505,1.627c-0.066,0.21 -0.261,0.354 -0.48,0.354l-1.234,0c-0.226,0 -0.423,-0.15 -0.485,-0.367c0,0 -0.316,-1.125 -0.453,-1.612l-5.828,0c-0.243,0.326 -1.326,1.78 -1.326,1.78c-0.095,0.128 -0.246,0.203 -0.405,0.203l-1.228,0l0,4.653l1.186,0c0.277,0 0.503,0.225 0.503,0.502l0,0.552l5.751,0l0,-0.552c0,-0.277 0.225,-0.502 0.503,-0.502l0.841,0c0.135,-0.49 0.447,-1.616 0.447,-1.616c0.059,-0.217 0.258,-0.368 0.483,-0.368l1.225,0c0.218,0 0.412,0.141 0.478,0.349c0,0 0.371,1.158 0.523,1.633c0.138,0 0.164,0 0.313,-0.001c0.163,-1.008 0.263,-2.149 0.263,-3.378c0,-1.167 -0.093,-2.269 -0.244,-3.256"/>
     <path id="svg_1" d="m9.296218,29.799133l-60.946547,12.079512l60.946547,-12.079512z" stroke-opacity="null" stroke-width="null" fill="#edebeb"/>
    </g>
   </g>
  </g>
 </g>
</svg>