<svg width="100" height="100" xmlns="http://www.w3.org/2000/svg">

 <g>
  <title>background</title>
  <rect fill="none" id="canvas_background" height="102" width="102" y="-1" x="-1"/>
 </g>
 <g>
  <title>Layer 1</title>
  <g id="svg_1">
   <g id="svg_2">
    <path id="svg_3" d="m49.517,55.45l25.262,-12.241c3.64,-1.639 1.271,-6.918 -2.551,-5.225l-21.462,9.667l0,-25.394c0,-3.987 -6.024,-3.805 -6.024,0l0.09,30.417c-0.001,2.274 2.456,3.914 4.685,2.776z" fill="#000000"/>
   </g>
   <path id="svg_4" d="m49.618,0c-27.403,0 -49.618,22.214 -49.618,49.616c0,27.404 22.215,49.617 49.618,49.617c27.401,0 49.614,-22.214 49.614,-49.617c0,-27.402 -22.212,-49.616 -49.614,-49.616zm0,93.566c-24.271,0 -43.951,-19.679 -43.951,-43.95c0,-24.272 19.68,-43.949 43.951,-43.949s43.949,19.677 43.949,43.949c0,24.272 -19.677,43.95 -43.949,43.95z" fill="#000000"/>
   <path id="svg_5" d="m49.618,49.616" fill="#000000"/>
  </g>
 </g>
</svg>