<?xml version="1.0" encoding="utf-8"?>
<!-- Svg Vector Icons : http://www.onlinewebfonts.com/icon -->
<!DOCTYPE svg PUBLIC "-//W3C//DTD SVG 1.1//EN" "http://www.w3.org/Graphics/SVG/1.1/DTD/svg11.dtd">
<svg version="1.1" xmlns="http://www.w3.org/2000/svg" xmlns:xlink="http://www.w3.org/1999/xlink" x="0px" y="0px" viewBox="0 0 1000 1000" enable-background="new 0 0 1000 1000" xml:space="preserve">
<metadata> Svg Vector Icons : http://www.onlinewebfonts.com/icon </metadata>
<g><path fill="red" d="M629.4,877.9c47.2,10.8,47.2,10.8,47.2,62.3c0,4.2,0,8.3,0,12.5c-0.1,35-2.2,37.2-36.6,37.2c-180.1,0-360.3,0-540.4,0c-37.5,0-38.9-1.5-38.9-40c0-5-0.1-10,0.1-15c1.9-48.8-11.2-49.6,48.3-56.3c0-10.2,0-20.8,0-31.3c0-237.7,0-475.4,0-713c0-8.3-0.1-16.7,0.1-25c1.5-61.4,37.5-98.4,98.6-98.8c107.6-0.6,215.2-0.7,322.7,0c60.1,0.4,96.1,36.9,96.5,97.3c0.6,90.9,0.2,181.8,0.1,272.7c0,9,0,18.1,0,26.4c101.2,33.4,116.5,54.9,116.4,161.8c0,68.4-0.3,136.8-0.1,205.2c0.1,33.3,4.3,37.5,37.4,37.7c81.2,0.6,70.7,7.7,70.9-70.1c0.4-151.8,0.7-303.6-0.3-455.3c-0.1-14.5-8.1-29.7-15-43.3c-7.8-15.5-22.1-28.3-27.4-44.3c-17.4-52.5-58-84.1-99.2-115.3c-12.1-9.2-20.9-16.4-9.3-31.9c11.6-15.5,21.8-9.6,33.5-0.3c48.2,38.5,96.7,76.7,145.1,114.9c41.4,32.7,60.5,74.8,60.1,128.3c-1.2,162.6-0.4,325.2-0.5,487.9c-0.1,92-26,117.4-118.2,116.1c-26.7-0.4-53.4-0.4-80-2.6c-47.2-4-78.6-32.9-80-80.2c-2.8-90-2-180-2.6-270.1c-0.2-20.6-1.2-40.6-28.6-48.4C629.4,624.6,629.4,751.4,629.4,877.9z M370.2,329.7c44.1,0,88.2-0.5,132.4,0.2c19.7,0.3,29.5-7.2,29.4-27.6c-0.3-49.9-0.3-99.9,0-149.8c0.1-18.9-8.6-27.3-27.3-27.2c-89.9,0.2-179.8,0.3-269.7-0.1c-20.9-0.1-30.3,8.9-30.1,30.1c0.6,48.3,0.5,96.6,0,144.8c-0.2,21.3,9.5,30,30.4,29.7C280.3,329.4,325.3,329.7,370.2,329.7z"/></g>
</svg>