<?xml version="1.0" encoding="utf-8"?>
<!-- Svg Vector Icons : http://www.onlinewebfonts.com/icon -->
<!DOCTYPE svg PUBLIC "-//W3C//DTD SVG 1.1//EN" "http://www.w3.org/Graphics/SVG/1.1/DTD/svg11.dtd">
<svg version="1.1" xmlns="http://www.w3.org/2000/svg" xmlns:xlink="http://www.w3.org/1999/xlink" x="0px" y="0px" viewBox="0 0 1000 1000" enable-background="new 0 0 1000 1000" xml:space="preserve">
<metadata> Svg Vector Icons : http://www.onlinewebfonts.com/icon </metadata>
<g><g transform="translate(0.000000,511.000000) scale(0.100000,-0.100000)"><path fill="red" d="M4624.7,3666.9c-933.2-111.8-1771.5-556-2344.2-1237.8c-567.2-673.4-855-1452.9-855-2319.1c0-1707.2,1184.7-3149,2877.9-3506.6c114.6-25.2,366-53.1,558.8-61.5c1388.7-58.7,2696.3,718.1,3333.4,1975.4c125.7,251.5,279.4,718.1,329.7,1005.9c19.6,114.5,36.3,380,36.3,586.8c0,441.5-36.3,687.3-167.7,1089.7c-419.1,1304.8-1522.8,2238.1-2889.1,2444.8C5261.8,3683.6,4834.3,3692,4624.7,3666.9z M5714.4,2892.9c899.7-231.9,1659.7-916.5,1969.8-1774.3c139.7-382.8,176-592.4,176-1008.7c0-416.3-36.3-625.9-176-1008.7c-505.7-1402.6-2101.2-2187.8-3531.8-1737.9c-964,301.8-1679.3,1053.4-1950.3,2050.9C2149.1-384.6,2138-284,2138,110c0,505.7,41.9,723.7,212.4,1134.4c178.8,433.1,614.7,964,1011.5,1237.8c315.7,215.2,827.1,419.1,1207.1,477.8C4865,3004.7,5401.5,2974,5714.4,2892.9z"/><path fill="red" d="M4610.7,934.3V-337.1h391.2h391.2V934.3v1271.3h-391.2h-391.2V934.3z"/><path fill="red" d="M4778.4-921c-134.1-69.9-231.9-259.8-215.2-413.5c22.4-212.3,226.3-399.6,430.3-399.6c125.8,0,315.7,114.6,374.4,223.5c111.8,204,41.9,469.4-148.1,586.8C5102.5-854,4906.9-851.2,4778.4-921z"/><path fill="red" d="M1369.6,3415.4C749.3,2719.7,327.4,1864.7,165.3,959.4C78.7,492.8,78.7-270,162.5-733.8c153.7-843.8,533.7-1656.9,1081.3-2313.5c97.8-114.6,201.2-234.7,234.7-262.7l61.5-55.9l248.7,248.7l248.7,245.9l-167.6,184.4C883.4-1605.6,548.1,26.2,1020.3,1437.2c178.8,533.7,494.6,1081.3,849.4,1469.7l167.6,184.4l-243.1,240.3c-134.1,134.1-251.5,243.1-262.7,243.1C1523.3,3574.7,1447.8,3502,1369.6,3415.4z"/><path fill="red" d="M8209.6,3331.6l-240.3-245.9l164.8-181.6c500.2-542.1,874.6-1321.6,1008.7-2106.8c47.5-285,53.1-410.7,41.9-813.1c-16.8-508.5-64.3-801.9-198.4-1201.5c-173.2-516.9-508.5-1092.5-852.2-1469.7l-167.7-184.4l248.7-245.9l248.7-248.7l61.4,55.9c33.5,27.9,136.9,148.1,234.7,262.7c547.6,656.6,927.7,1469.7,1081.3,2313.5C9886-476.8,9900-295.1,9900,110c0,405.1-14,586.8-58.7,843.8c-159.3,869-558.8,1707.2-1128.8,2366.6c-111.8,131.3-217.9,240.3-231.9,245.9C8463.8,3571.9,8343.7,3465.7,8209.6,3331.6z"/></g></g>
</svg>