<?xml version="1.0" encoding="iso-8859-1"?>
<!-- Generator: Adobe Illustrator 16.0.0, SVG Export Plug-In . SVG Version: 6.00 Build 0)  -->
<!DOCTYPE svg PUBLIC "-//W3C//DTD SVG 1.1//EN" "http://www.w3.org/Graphics/SVG/1.1/DTD/svg11.dtd">
<svg xmlns="http://www.w3.org/2000/svg" xmlns:xlink="http://www.w3.org/1999/xlink" version="1.1" id="Capa_1" x="0px" y="0px" width="512px" height="512px" viewBox="0 0 340.533 340.533" style="enable-background:new 0 0 340.533 340.533;" xml:space="preserve">
<g>
	<g>
		<g>
			<g>
				<path d="M145.768,290.197c-6.137,0-12.25-5.831-13.412-7.002c-4.194-3.092-115.082-86.691-127.269-98.856      c-4.422-4.444-5.203-8.894-5.074-11.856c0.288-7.089,5.768-11.935,6.389-12.463L129.738,57.946      c1.351-1.474,7.617-7.611,13.577-7.611c2.717,0,9.031,1.243,9.031,12.691v52.623H326.47c0.486-0.081,1.135-0.156,1.903-0.156      c2.03,0,12.16,0.774,12.16,15.976v80.87c0,11.187-7.927,14.153-12.118,14.153H156.012v48.23      C156.012,288.191,149.593,290.197,145.768,290.197z M145.768,280.451v4.87V280.451L145.768,280.451z" fill="#00b51a"/>
			</g>
		</g>
	</g>
</g>
<g>
</g>
<g>
</g>
<g>
</g>
<g>
</g>
<g>
</g>
<g>
</g>
<g>
</g>
<g>
</g>
<g>
</g>
<g>
</g>
<g>
</g>
<g>
</g>
<g>
</g>
<g>
</g>
<g>
</g>
</svg>
