<svg width="42" height="29" xmlns="http://www.w3.org/2000/svg">
 <defs>
  <style>.cls-1{fill:none;stroke:#edebeb;stroke-miterlimit:10;stroke-width:2.25px;}.cls-1,.cls-2{fill-rule:evenodd;}</style>
 </defs>
 <title>icons</title>
 <g>
  <title>background</title>
  <rect fill="none" id="canvas_background" height="31" width="44" y="-1" x="-1"/>
 </g>
 <g>
  <title>Layer 1</title>
  <path id="svg_1" d="m23.120019,0.340028l-3.94,0.17a1.81,1.81 0 0 0 -1.57,0.95a38.24,38.24 0 0 0 0,24.79a1.24,1.24 0 0 0 1.17,0.8l4.34,0.12c9.46,-0.01 17.13,-6.01 17.13,-13.42s-7.67,-13.41 -17.13,-13.41z" class="cls-1" fill="#edebeb"/>
  <polyline id="svg_2" points="0.2500119209289551,3.5000081956386566 0.2500119209289551,1.2300107181072235 15.030000686645508,1.2300107181072235 14.270000457763672,3.5000081956386566 0.2500119209289551,3.5000081956386566 " class="cls-2" fill="#edebeb"/>
  <polyline id="svg_3" points="13.520000457763672,6.850002616643906 0.2500119209289551,6.850002616643906 0.2500119209289551,9.000000327825546 13.270000457763672,9.000000327825546 13.520000457763672,6.850002616643906 " class="cls-2" fill="#edebeb"/>
  <polyline id="svg_4" points="0.2500119209289551,18.369999259710312 13.270000457763672,18.369999259710312 13.520000457763672,20.639999717473984 0.2500119209289551,20.639999717473984 0.2500119209289551,18.369999259710312 " class="cls-2" fill="#edebeb"/>
  <polyline id="svg_5" points="15.030000686645508,26.270000785589218 0.2500119209289551,26.270000785589218 0.2500119209289551,23.990002006292343 14.270000457763672,23.990002006292343 15.030000686645508,26.270000785589218 " class="cls-2" fill="#edebeb"/>
  <polyline id="svg_6" points="13.010000228881836,14.889999717473984 12.879999160766602,13.680000633001328 13.010000228881836,12.610000938177109 0.2500119209289551,12.610000938177109 0.2500119209289551,14.889999717473984 13.010000228881836,14.889999717473984 " class="cls-2" fill="#edebeb"/>
 </g>
</svg>