<svg width="90" height="38" xmlns="http://www.w3.org/2000/svg">

 <g>
  <title>background</title>
  <rect fill="none" id="canvas_background" height="40" width="92" y="-1" x="-1"/>
 </g>
 <g>
  <title>Layer 1</title>
  <path fill="red" id="svg_1" d="m88.483324,14.016594l-5.8,-5.7l-27,12.7l-5.2,-6.9l-12,0l0,-2.5l6.8,0l0,-3.9l-18.3,0l0,3.9l6.4,0l0,2.5l-8.8,0l0,-5.7l-18.6,-8.4l-0.7,1.4l-5.2,11.5l20.6,9.3l0,0.2l0,16.4l37.2,0l19,-23.3l4.7,-2.5l3.3,3.6l3.6,-2.6zm-67.8,0.1l0,3.1l-15.2,-6.9l2,-4.4l13.2,6l0,2.2zm35.3,20.7l-31.2,0l0,-11.3l0,-5.3l8.6,0l1,0l4.1,0l10.1,0l4,5.3l2,2.6l3,-1.4l10.9,-5.2l-12.5,15.3z"/>
  <path fill="red" id="svg_2" d="m90.083324,28.716594c-0.1,-0.8 -0.3,-1.4 -0.5,-1.9c-0.2,-0.5 -0.6,-1.5 -1.3,-3l-1.9,-4.2l-1.9,4.1c-0.1,0.2 -1.1,2.4 -1.4,3.1c-0.2,0.4 -0.4,1.1 -0.5,1.9c-0.1,1.2 0.2,2.3 1,3.1c0.7,0.7 1.7,1.2 2.8,1.2c1.1,0 2.1,-0.4 2.8,-1.2c0.7,-0.7 1,-1.8 0.9,-3.1z"/>
 </g>
</svg>