<?xml version="1.0" encoding="iso-8859-1"?>
<!-- Generator: Adobe Illustrator 18.0.0, SVG Export Plug-In . SVG Version: 6.00 Build 0)  -->
<!DOCTYPE svg PUBLIC "-//W3C//DTD SVG 1.1//EN" "http://www.w3.org/Graphics/SVG/1.1/DTD/svg11.dtd">
<svg version="1.1" id="Capa_1" xmlns="http://www.w3.org/2000/svg" xmlns:xlink="http://www.w3.org/1999/xlink" x="0px" y="0px"
	 viewBox="0 0 302.93 302.93" style="enable-background:new 0 0 302.93 302.93;" xml:space="preserve">
<path fill="red" d="M294.289,126.945h-31.929l38.373-38.374c2.929-2.929,2.929-7.678,0-10.606c-2.929-2.929-7.678-2.929-10.607,0
	l-43.031,43.032l-14.579-37.701c-1.117-2.89-3.897-4.795-6.995-4.795H107.519c-2.641,0-5.087,1.389-6.44,3.656l-26.732,44.787
	H16.867c-3.714,0-6.869,2.719-7.417,6.392l-9.368,62.714c-0.322,2.159,0.312,4.351,1.736,6.004c1.425,1.653,3.499,2.604,5.682,2.604
	H35.21c6.231,13.489,19.948,22.502,35.116,22.502c15.162,0,28.872-9.014,35.099-22.502h96.443
	c6.229,13.489,19.942,22.502,35.108,22.502c15.161,0,28.871-9.014,35.097-22.502h22.218c4.142,0,7.5-3.358,7.5-7.5v-62.714
	C301.789,130.303,298.431,126.945,294.289,126.945z M286.789,189.659h-19.904c-3.342,0-6.281,2.211-7.206,5.422
	c-2.899,10.056-12.235,17.08-22.704,17.08c-10.474,0-19.814-7.024-22.716-17.081c-0.926-3.211-3.865-5.421-7.206-5.421H100.238
	c-3.342,0-6.281,2.211-7.207,5.422c-2.899,10.056-12.236,17.08-22.705,17.08c-10.477,0-19.821-7.024-22.725-17.082
	c-0.926-3.21-3.865-5.42-7.206-5.42H16.204l7.126-47.714h55.274c2.641,0,5.087-1.389,6.44-3.656l26.732-44.787h108.604
	l16.878,43.648c1.117,2.89,3.897,4.795,6.995,4.795h42.535V189.659z"/>
<g>
</g>
<g>
</g>
<g>
</g>
<g>
</g>
<g>
</g>
<g>
</g>
<g>
</g>
<g>
</g>
<g>
</g>
<g>
</g>
<g>
</g>
<g>
</g>
<g>
</g>
<g>
</g>
<g>
</g>
</svg>
